<svg xmlns="http://www.w3.org/2000/svg" viewBox="0 0 512 512">
  <rect width="512" height="512" rx="112" fill="#5f6655"/>
  <circle cx="256" cy="256" r="176" fill="#faf7f1"/>
  <circle cx="256" cy="256" r="128" fill="#f3eee4"/>
  <path d="M156 274c0-72 45-122 109-122 35 0 64 15 82 39l-35 28c-12-16-27-24-47-24-37 0-63 31-63 79 0 49 27 80 67 80 22 0 41-10 55-29l35 27c-20 29-52 45-92 45-66 0-111-50-111-123Z" fill="#b9985a"/>
  <path d="M242 260c0-25 18-43 43-43 17 0 30 8 38 21 8-13 21-21 38-21 25 0 43 18 43 43 0 41-54 70-81 88-28-18-81-47-81-88Z" fill="#c98e9b"/>
  <text x="256" y="415" text-anchor="middle" font-family="Georgia, serif" font-size="54" fill="#3d3a33">C ♥ D</text>
</svg>
